<svg xmlns="http://www.w3.org/2000/svg" width="1.677ex" height="1.994ex" version="1.1"><svg xmlns:xlink="http://www.w3.org/1999/xlink" width="1.677ex" height="1.994ex" viewBox="0 -755.9 722 858.4" role="img" focusable="false" style="vertical-align: -0.238ex;"><defs><path stroke-width="0" id="E2361-MJAMS-44" d="M16 666Q16 675 28 683H193Q329 683 364 682T430 672Q534 650 600 585T686 423Q688 406 688 352Q688 274 673 226Q641 130 565 72T381 1Q368 -1 195 -1H28Q16 5 16 16Q16 35 53 35Q68 36 75 37T87 42T95 52Q98 61 98 341T95 630Q91 640 83 643T53 648Q16 648 16 666ZM237 646Q237 648 184 648H128Q128 647 133 632Q136 620 136 341Q136 64 133 50L128 35H237L230 48L226 61V343Q228 620 231 633Q232 636 237 646ZM264 61Q278 40 310 35Q363 35 401 55T461 112T496 193T513 295Q515 333 515 349Q515 411 504 459Q481 598 373 641Q351 648 321 648Q304 648 292 643T277 635T264 621V61ZM461 628Q462 627 471 616T489 594T509 559T529 509T544 441T550 352Q550 165 479 75L468 59Q474 61 484 65T522 87T573 128T618 195T650 290Q654 322 654 354Q654 418 638 464T581 552Q559 576 529 595T480 621L461 628Z"></path></defs><g stroke="currentColor" fill="currentColor" stroke-width="0" transform="matrix(1 0 0 -1 0 0)"><use xlink:href="#E2361-MJAMS-44" x="0" y="0"></use></g></svg></svg>