<?xml version="1.0" encoding="UTF-8" standalone="no"?>
<svg
   xmlns:dc="http://purl.org/dc/elements/1.1/"
   xmlns:cc="http://creativecommons.org/ns#"
   xmlns:rdf="http://www.w3.org/1999/02/22-rdf-syntax-ns#"
   xmlns:svg="http://www.w3.org/2000/svg"
   xmlns="http://www.w3.org/2000/svg"
   xmlns:xlink="http://www.w3.org/1999/xlink"
   xmlns:sodipodi="http://sodipodi.sourceforge.net/DTD/sodipodi-0.dtd"
   xmlns:inkscape="http://www.inkscape.org/namespaces/inkscape"
   width="183.15988"
   height="33"
   viewBox="0 0 183.15988 33"
   version="1.1"
   id="svg3097"
   inkscape:version="0.48.4 r9939"
   sodipodi:docname="C:\Users\ASN22\Downloads\SolidWorks\SWlogo.svg">
  <metadata
     id="metadata3137">
    <rdf:RDF>
      <cc:Work
         rdf:about="">
        <dc:format>image/svg+xml</dc:format>
        <dc:type
           rdf:resource="http://purl.org/dc/dcmitype/StillImage" />
        <dc:title>SOLIDWORKS_Logotype_White</dc:title>
      </cc:Work>
    </rdf:RDF>
  </metadata>
  <sodipodi:namedview
     pagecolor="#ffffff"
     bordercolor="#666666"
     borderopacity="1"
     objecttolerance="10"
     gridtolerance="10"
     guidetolerance="10"
     inkscape:pageopacity="0"
     inkscape:pageshadow="2"
     inkscape:window-width="1536"
     inkscape:window-height="801"
     id="namedview3135"
     showgrid="false"
     fit-margin-top="0"
     fit-margin-left="0"
     fit-margin-right="0"
     fit-margin-bottom="0"
     inkscape:zoom="2.0428571"
     inkscape:cx="-11.258829"
     inkscape:cy="12.174532"
     inkscape:window-x="-8"
     inkscape:window-y="-8"
     inkscape:window-maximized="1"
     inkscape:current-layer="svg3097" />
  <!-- Generator: Sketch 48.2 (47327) - http://www.bohemiancoding.com/sketch -->
  <title
     id="title3099">SOLIDWORKS_Logotype_White</title>
  <desc
     id="desc3101">Created with Sketch.</desc>
  <defs
     id="defs3103">
    <polygon
       id="path-1"
       points="139.27359,25.174546 139.27359,0.081517576 0.010588235,0.081517576 19.603594,0.081559814 19.603594,25.174546 6.1997231e-005,25.174546 6.1997231e-005,0.081559814 0.010588235,0.081559814 0.010588235,0.081559814 0.010588235,25.174546 " />
    <polygon
       id="path-3"
       points="0.10764706,0.13871688 0.10764706,11.382491 29.155941,11.382491 29.155941,11.382491 29.155941,0.13871688 " />
  </defs>
  <g
     id="StickerSheet_Blocks_Menu"
     transform="matrix(1.3151085,0,0,1.3151085,-2677.561,-2873.6193)"
     style="fill:none;stroke:none">
    <g
       id="Brand-Menu---Tablet"
       transform="translate(1988,1860)">
      <g
         id="Brand-Menu---Tablet-Dropdown"
         transform="translate(0,254)">
        <g
           id="Menu"
           transform="translate(0,56)">
          <g
             id="SOLIDWORKS_Logotype_White"
             transform="translate(48,15)">
            <g
               id="Group-4">
              <mask
                 id="mask-2"
                 fill="white">
                <use
                   xlink:href="#path-1"
                   id="use3114"
                   x="0"
                   y="0"
                   width="140"
                   height="26" />
              </mask>
              <g
                 id="Clip-2" />
            </g>
            <path
               d="m 24.061059,8.686417 c 1.249588,0.1979712 2.267823,0.3512448 2.501823,0.8138057 0.262412,0.5243843 -1.098353,0.5562373 -1.784117,0.5685683 -3.287118,0.05583 -5.269236,0.112515 -5.368412,1.092095 -0.129177,1.261125 1.404706,2.530642 2.919353,4.311013 1.383529,1.624871 2.956765,3.228164 2.503059,4.72408 -0.564883,1.862574 -3.168706,2.256462 -5.647589,2.256975 -2.374764,0.0017 -4.624411,-0.332406 -5.569411,-0.496983 -1.177059,-0.203794 -1.002177,-0.713964 -0.688059,-0.878198 0.349941,-0.183072 2.351294,-0.187695 3.742412,-0.260137 1.144588,-0.05891 4.469117,-0.05737 4.987235,-0.804386 0.635647,-0.914162 -0.920471,-2.479265 -2.349529,-4.11835 -1.782883,-2.045132 -3.74153,-4.156198 -2.705118,-5.698353 1.341353,-1.9949541 5.265176,-1.858121 7.458353,-1.51013"
               id="Fill-5"
               inkscape:connector-curvature="0"
               style="fill:#fffffe" />
            <path
               d="m 13.517118,0.09573177 c 2.484353,-0.10669212 5.424176,0.37367931 5.971941,1.96447083 0.897529,2.6071924 -3.652412,6.4088913 -7.617353,8.2750614 -0.971647,0.457423 -1.560882,0.582954 -1.806353,0.551785 C 9.831,10.857593 9.7948235,10.645579 9.8710588,10.499498 10.012412,10.225489 10.651412,9.6668542 11.507647,9.0597538 15.970765,5.8964951 17.421882,3.5761555 16.579235,2.6354495 16.038706,2.0331442 13.776177,1.6147673 11.426823,1.6147673 c -0.637941,0 -2.3138818,0.1342642 -2.4859406,-0.401594 C 8.8005882,0.77424571 11.050235,0.20139636 13.517118,0.09573177"
               id="Fill-1"
               inkscape:connector-curvature="0"
               style="fill:#fffffe" />
            <path
               d="m 7.9648235,11.980172 c 2.0647055,-0.104637 4.5728825,0.208761 5.9816475,1.146213 0.700411,0.465472 1.192941,1.322777 0.907764,2.30544 -0.813,2.788723 -3.847764,6.162797 -10.5914115,8.755433 C 2.1185294,25.011853 0.43252941,25.327134 0.07870588,25.105872 -0.30176471,24.868169 0.80417647,23.027859 1.137,22.41682 c 1.0764706,-1.978 2.4215294,-3.90411 3.7327059,-5.667527 0.483,-0.649229 1.2284117,-1.774549 1.9034117,-1.684468 0.6044118,0.08049 -0.1035882,1.27688 -0.5691176,2.037425 -0.7822941,1.276367 -2.9371765,4.821868 -2.2263529,5.033539 1.5714706,0.468898 8.9449409,-4.409484 7.8577059,-7.126794 -0.504,-1.260782 -3.7055295,-1.381003 -5.7215295,-1.381003 -0.9172941,0 -2.9202353,0.188381 -3.0310588,-0.422316 -0.1194706,-0.56343 3.0430588,-1.130971 4.8820588,-1.225504"
               id="Fill-3"
               inkscape:connector-curvature="0"
               style="fill:#fffffe" />
            <path
               d="m 52.706294,17.083755 c -0.437823,2.610275 -1.672941,3.933737 -4.02247,3.933737 -2.346883,0 -3.130059,-1.323462 -2.686236,-3.933737 0.438883,-2.609076 1.669235,-3.934079 4.021941,-3.934079 2.348294,0 3.127942,1.325003 2.686765,3.934079 z m -2.361529,-5.861902 c -4.141589,0 -6.365294,2.673126 -6.908471,5.861902 -0.533647,3.192201 0.783,5.859846 4.925824,5.859846 4.135764,0 6.363176,-2.667645 6.905117,-5.859846 0.54,-3.188776 -0.781764,-5.861902 -4.92247,-5.861902 l 0,0 z"
               id="Fill-6"
               inkscape:connector-curvature="0"
               style="fill:#fffffe" />
            <path
               d="m 33.902471,13.673375 c -0.145765,0.897378 0.139588,1.967553 1.174588,2.670899 l 3.704823,2.508207 c 0.393353,0.260137 0.580941,0.437386 0.534883,0.740851 -0.06812,0.41889 -0.294883,0.592715 -1.061647,0.592715 l -4.306765,0 c -0.457412,0 -0.710294,0.212356 -0.795882,0.7203 l 0,1.557568 5.046529,0 c 2.211176,0 3.303353,-1.263351 3.523235,-2.608391 0.207353,-1.263694 -0.228,-2.168436 -1.071,-2.747965 l -3.934588,-2.712857 c -0.317118,-0.220748 -0.395294,-0.336174 -0.372,-0.499723 0.036,-0.277262 0.292412,-0.390976 0.739588,-0.390976 l 4.496471,0 c 0.552176,0 0.864,-0.543051 0.948353,-1.084561 l 0,-1.197589 -5.942118,0 c -1.320706,0 -2.473588,1.145185 -2.68447,2.451522"
               id="Fill-7"
               inkscape:connector-curvature="0"
               style="fill:#fffffe" />
            <path
               d="m 63.914647,20.634907 -4.919823,0 1.695882,-9.026188 c 0.03759,-0.183414 -0.100588,-0.386866 -0.333353,-0.386866 l -2.165647,0 -2.114294,11.242062 8.153294,0 0.209647,-1.12806 c 0.09247,-0.497668 -0.07853,-0.700948 -0.525706,-0.700948"
               id="Fill-8"
               inkscape:connector-curvature="0"
               style="fill:#fffffe" />
            <path
               d="m 130.04294,11.291212 -0.57053,0 -5.95817,4.948425 0.78864,-4.369753 c 0.0514,-0.243354 -0.0676,-0.411013 -0.16835,-0.477974 -0.10518,-0.08135 -0.23753,-0.121591 -0.36635,-0.121591 l -0.57106,0 -2.154,11.238807 1.27094,0 0.94606,-4.972743 4.71847,4.97771 0.56417,0 c 0.11489,-0.005 0.22148,-0.01952 0.315,-0.08511 0.10077,-0.07313 0.15089,-0.200198 0.15089,-0.310486 0,-0.204479 -0.17153,-0.406903 -0.17153,-0.406903 l -4.46647,-4.710723 5.96435,-4.910406 c 0,0 0.16659,-0.138546 0.16659,-0.407417 0.002,-0.106178 -0.048,-0.235476 -0.14277,-0.303807 -0.0974,-0.07432 -0.21088,-0.08803 -0.31588,-0.08803"
               id="Fill-9"
               inkscape:connector-curvature="0"
               style="fill:#fffffe" />
            <g
               id="Group-13"
               transform="translate(110.11765,11.131602)">
              <mask
                 id="mask-4"
                 fill="white">
                <use
                   xlink:href="#path-3"
                   id="use3126"
                   x="0"
                   y="0"
                   width="140"
                   height="26" />
              </mask>
              <g
                 id="Clip-11" />
              <path
                 d="m 6.5588823,5.246752 c -0.708,0.1837571 -1.7020588,0.2176657 -2.7333529,0.2176657 -0.3663529,-0.00548 -0.8848235,-0.00873 -1.338,-0.014214 l 0.7598824,-4.091977 c 0.6038823,-0.0024 2.5741764,-0.030655 3.2414117,0.00343 0.2657647,0.013529 0.5031177,0.031682 0.6472941,0.059254 0.5465295,0.1008695 0.9037059,0.2043077 1.1345295,0.4267685 0.9984706,0.9225529 0.1027058,2.9241862 -1.7117648,3.3990774 z m -1.3203529,-5.10803512 -2.979,0 -2.15188234,11.24377412 1.27358824,0 L 2.2828235,6.5479506 4.605,6.5609656 7.4908235,11.38249 l 0.6437647,0 c 0.1159412,0 0.2202353,-0.01952 0.3160589,-0.08511 0.1005882,-0.07313 0.1510588,-0.200198 0.146647,-0.310485 0,-0.159096 -0.1644706,-0.406903 -0.1644706,-0.406903 L 5.9722941,6.4946902 C 8.8942941,6.2395196 9.6714706,4.2389139 9.8505882,3.4391512 9.9935294,2.7928333 9.9559412,1.7365299 9.4431177,1.1638518 8.5432941,0.16474771 6.9965294,0.13871688 5.2385294,0.13871688 l 0,0 z"
                 id="Fill-10"
                 mask="url(#mask-4)"
                 inkscape:connector-curvature="0"
                 style="fill:#fffffe" />
              <path
                 d="m 24.372353,0.13871688 c -2.233941,0.00685 -2.467941,1.78413892 -2.479588,2.62466042 0,0.8838492 0.661058,1.5882227 0.99,1.8675403 l 3.255706,3.0961266 c 0.38647,0.3664865 0.576882,0.7970226 0.576882,1.2046105 0,0.6863917 -0.539294,1.2463973 -1.410176,1.2428003 -0.0037,0.0036 -4.214295,0.0036 -4.253295,0.01713 -0.141353,0.02517 -0.281823,0.201054 -0.279529,0.340798 l -0.01394,0 0.01394,0.007 0,0.843091 4.730471,0 c 2.232176,-0.008 2.469882,-1.7860228 2.479588,-2.6244893 l 0,-0.00445 c 0,-1.1650506 -1.102941,-2.0646552 -1.107706,-2.0646552 L 23.787882,3.7403894 C 23.404765,3.3733891 23.166353,2.9945721 23.161765,2.586128 c 0.0046,-0.6906731 0.540529,-1.2426293 1.413882,-1.2426293 0.0048,0 4.260882,-0.00582 4.296177,-0.015927 l 0.0092,0.030655 -0.0071,-0.030655 c 0.136941,-0.022606 0.285883,-0.1986562 0.282,-0.3370306 l 0,-0.85182442 -4.783588,0"
                 id="Fill-12"
                 mask="url(#mask-4)"
                 inkscape:connector-curvature="0"
                 style="fill:#fffffe" />
            </g>
            <path
               d="m 78.717353,11.221853 -6.233118,0 -0.03176,0.179819 c -0.143647,0.764997 -0.07977,1.644737 1.165941,1.644737 l 4.614353,0 c 1.828235,0 2.528117,1.285956 2.077941,3.69552 -0.41453,2.204742 -1.644529,3.892978 -3.504882,3.892978 l -2.505177,0 1.193118,-6.321893 -2.130883,0 c -0.286588,0 -0.490059,0.201053 -0.517235,0.382242 l -1.463294,7.765234 4.883647,0 c 3.608118,0 6.122647,-1.641655 6.896294,-5.801449 0.608471,-3.190145 -0.767823,-5.437188 -4.444941,-5.437188"
               id="Fill-14"
               inkscape:connector-curvature="0"
               style="fill:#fffffe" />
            <path
               d="m 70.052294,11.221853 -2.167412,0 -2.117823,11.238637 2.574353,0 2.044941,-10.855196 c 0.03512,-0.179989 -0.102177,-0.383441 -0.334059,-0.383441"
               id="Fill-15"
               inkscape:connector-curvature="0"
               style="fill:#fffffe" />
            <path
               d="m 108.02241,17.434828 c -0.80223,3.276288 -3.09141,4.494085 -5.24223,4.38157 l -0.21177,-0.01045 c -2.08323,-0.258938 -3.620645,-1.818561 -2.802351,-5.029942 0.836821,-3.27526 3.266121,-4.491858 5.392231,-4.379344 2.11042,0.209103 3.64977,1.826611 2.86412,5.038163 z m -2.571,-6.186088 0,-0.0057 c -3.73147,-0.280174 -6.098292,2.241733 -6.914469,5.435133 -0.745764,2.876235 0.259588,5.891186 3.785649,6.288841 3.78706,0.281887 6.16112,-2.240192 6.94217,-5.435133 0.702,-2.880345 -0.33405,-5.890672 -3.81335,-6.28319 l 0,0 z"
               id="Fill-16"
               inkscape:connector-curvature="0"
               style="fill:#fffffe" />
            <path
               d="m 98.536941,11.714384 c 0.0048,-0.111316 -0.048,-0.263391 -0.155647,-0.34371 -0.104118,-0.07998 -0.219176,-0.100355 -0.333529,-0.100355 l -0.585353,0 -4.494883,9.887431 -1.173,-5.296416 c -0.06688,-0.464616 -0.45,-0.782637 -0.909,-0.757806 l -0.754411,0 -3.548294,6.000448 0.03582,-9.356369 c 0,-0.125187 -0.04871,-0.281886 -0.163588,-0.36837 -0.109941,-0.08803 -0.234177,-0.108918 -0.35453,-0.108918 l -0.757588,0 0,11.238807 0.98453,0 c 0.283411,0.005 0.53947,-0.06336 0.749294,-0.211329 0.190941,-0.134949 0.352235,-0.319049 0.49747,-0.541681 l 3.111177,-5.377762 1.289294,6.130772 0.836647,0 c 0.528176,0 0.969353,-0.295244 1.198765,-0.804215 l 4.467,-9.752996 c 0.03406,-0.07826 0.05982,-0.129469 0.05982,-0.237531"
               id="Fill-17"
               inkscape:connector-curvature="0"
               style="fill:#fffffe" />
          </g>
        </g>
      </g>
    </g>
  </g>
</svg>
